<?xml version="1.0" encoding="utf-8"?>
<!-- Generator: Adobe Illustrator 24.0.2, SVG Export Plug-In . SVG Version: 6.00 Build 0)  -->
<svg version="1.1" xmlns="http://www.w3.org/2000/svg" xmlns:xlink="http://www.w3.org/1999/xlink" x="0px" y="0px"
	 viewBox="0 0 500 401.33" style="enable-background:new 0 0 500 401.33;" xml:space="preserve">
<style type="text/css">
	.st0{fill:#EBEBEB;}
	.st1{fill:#E6E6E6;}
	.st2{fill:#FAFAFA;}
	.st3{fill:#FFFFFF;}
	.st4{fill:#E0E0E0;}
	.st5{fill:#F0F0F0;}
	.st6{fill:#F5F5F5;}
	.st7{display:none;}
	.st8{display:inline;}
	.st9{fill:#407BFF;}
	.st10{opacity:0.9;fill:#FFFFFF;}
	.st11{fill:#263238;}
	.st12{opacity:0.1;}
	.st13{fill:#ED893E;}
	.st14{fill:#FFB573;}
	.st15{opacity:0.3;}
	.st16{opacity:0.2;}
	.st17{fill:#FFC3BD;}
	.st18{fill:#ED847E;}
	.st19{opacity:0.5;fill:#FFFFFF;}
	.st20{fill:#B55B52;}
	.st21{fill:#B65B52;}
	.st22{fill:#A02724;}
</style>
<g id="Background_Complete">
	<g>
		<rect y="339.73" class="st0" width="500" height="0.25"/>
		<rect x="394.36" y="351.19" class="st0" width="50.9" height="0.25"/>
		<rect x="52.46" y="348.22" class="st0" width="47.21" height="0.25"/>
		<rect x="378.81" y="346.54" class="st0" width="19.19" height="0.25"/>
		<rect x="317.14" y="353.17" class="st0" width="14.08" height="0.25"/>
		<rect x="272.79" y="353.17" class="st0" width="35.44" height="0.25"/>
		<rect x="195.22" y="348.95" class="st0" width="56.99" height="0.25"/>
		<path class="st0" d="M237.01,295.13H43.92c-3.15,0-5.71-2.56-5.71-5.71V17.99c0-3.15,2.56-5.71,5.71-5.71h193.1
			c3.15,0,5.71,2.56,5.71,5.71v271.43C242.72,292.57,240.16,295.13,237.01,295.13z M43.92,12.54c-3.01,0-5.46,2.45-5.46,5.46v271.43
			c0,3.01,2.45,5.46,5.46,5.46h193.1c3.01,0,5.46-2.45,5.46-5.46V17.99c0-3.01-2.45-5.46-5.46-5.46H43.92z"/>
		<path class="st0" d="M453.31,295.13h-193.1c-3.15,0-5.71-2.56-5.71-5.71V17.99c0-3.15,2.56-5.71,5.71-5.71h193.1
			c3.15,0,5.71,2.56,5.71,5.71v271.43C459.02,292.57,456.46,295.13,453.31,295.13z M260.21,12.54c-3.01,0-5.46,2.45-5.46,5.46
			v271.43c0,3.01,2.45,5.46,5.46,5.46h193.1c3.01,0,5.46-2.45,5.46-5.46V17.99c0-3.01-2.45-5.46-5.46-5.46H260.21z"/>
	</g>
	<g>
		<g>
			<g>
				<rect x="58.51" y="45.36" class="st1" width="165.98" height="211.22"/>
				<rect x="56.44" y="45.36" class="st2" width="165.98" height="211.22"/>
				
					<rect x="38.47" y="72.62" transform="matrix(-1.836970e-16 1 -1 -1.836970e-16 290.4005 11.5337)" class="st3" width="201.93" height="156.69"/>
				<circle class="st2" cx="139.43" cy="212.1" r="21.18"/>
				<path class="st0" d="M161.88,150.97c0,3.86-3.4,6.84-5.21,9.96c-1.86,3.21-2.8,7.63-6.02,9.49c-3.12,1.8-7.37,0.46-11.23,0.46
					c-3.86,0-8.11,1.34-11.23-0.46c-3.21-1.86-4.16-6.28-6.02-9.49c-1.8-3.12-5.21-6.1-5.21-9.96c0-3.86,3.4-6.84,5.21-9.96
					c1.86-3.21,2.8-7.63,6.02-9.49c3.12-1.8,7.37-0.46,11.23-0.46c3.86,0,8.11-1.34,11.23,0.46c3.21,1.86,4.16,6.28,6.02,9.49
					C158.48,144.13,161.88,147.11,161.88,150.97z"/>
				<polygon class="st4" points="163.82,89.84 156.53,95.4 159.16,104.18 150,104.38 146.97,113.04 139.43,107.81 131.9,113.04 
					128.87,104.38 119.7,104.18 122.33,95.39 115.05,89.84 122.33,84.28 119.7,75.5 128.87,75.29 131.9,66.64 139.43,71.87 
					146.97,66.64 150,75.3 159.16,75.5 156.53,84.28 				"/>
			</g>
		</g>
		<g>
			
				<rect x="416.91" y="255.59" transform="matrix(-1 -1.224647e-16 1.224647e-16 -1 853.5688 591.6263)" class="st5" width="19.75" height="80.44"/>
			
				<rect x="268.55" y="336.03" transform="matrix(-1 -1.224647e-16 1.224647e-16 -1 699.9997 675.7657)" class="st5" width="162.9" height="3.7"/>
			<rect x="263.34" y="255.59" class="st6" width="153.57" height="80.44"/>
			<rect x="274.01" y="284.67" class="st5" width="132.22" height="19.14"/>
			<rect x="274.01" y="309.71" class="st5" width="132.22" height="19.14"/>
			<path class="st6" d="M301.24,285.98h77.77c0.69,0,1.26-0.57,1.26-1.26v-0.11c0-0.69-0.57-1.26-1.26-1.26h-77.77
				c-0.69,0-1.26,0.57-1.26,1.26v0.11C299.98,285.41,300.55,285.98,301.24,285.98z"/>
			<path class="st6" d="M301.24,311.03h77.77c0.69,0,1.26-0.57,1.26-1.26v-0.11c0-0.69-0.57-1.26-1.26-1.26h-77.77
				c-0.69,0-1.26,0.57-1.26,1.26v0.11C299.98,310.46,300.55,311.03,301.24,311.03z"/>
			<rect x="274.01" y="259.62" class="st5" width="132.22" height="19.14"/>
			<path class="st6" d="M301.24,260.93h77.77c0.69,0,1.26-0.57,1.26-1.26v-0.11c0-0.69-0.57-1.26-1.26-1.26h-77.77
				c-0.69,0-1.26,0.57-1.26,1.26v0.11C299.98,260.36,300.55,260.93,301.24,260.93z"/>
		</g>
		<g>
			
				<ellipse transform="matrix(0.7071 -0.7071 0.7071 0.7071 92.8927 295.8022)" class="st6" cx="403.51" cy="35.77" rx="17.71" ry="17.71"/>
			
				<ellipse transform="matrix(0.7071 -0.7071 0.7071 0.7071 92.0384 293.7396)" class="st0" cx="400.59" cy="35.77" rx="13.05" ry="13.05"/>
			<path class="st3" d="M400.29,35.77c0,1.31-1.06,2.37-2.37,2.37c-1.31,0-2.37-1.06-2.37-2.37s1.06-2.37,2.37-2.37
				C399.23,33.4,400.29,34.46,400.29,35.77z"/>
			<path class="st0" d="M408.71,57.67c-3.08,0-5.33-0.53-5.52-0.58c-0.72-0.18-1.15-0.9-0.98-1.61c0.17-0.72,0.9-1.16,1.61-0.98
				c0.09,0.02,9.26,2.17,15.5-2.74c3.99-3.13,6.01-8.51,6.01-15.99c0-0.74,0.6-1.34,1.34-1.34c0.74,0,1.34,0.6,1.34,1.34
				c0,8.34-2.37,14.43-7.04,18.1C417.04,56.94,412.31,57.67,408.71,57.67z"/>
			<path class="st0" d="M425.53,37.91c-1.37,0-2.48-1.11-2.48-2.48v-4.69c0-1.37,1.11-2.48,2.48-2.48c1.37,0,2.48,1.11,2.48,2.48
				v4.69C428.01,36.8,426.89,37.91,425.53,37.91z"/>
		</g>
	</g>
</g>
<g id="Background_Simple" class="st7">
	<g class="st8">
		<path class="st9" d="M391.21,193.6c-3.6-38.86-87.68-129.09-149.77-150.84C160.92,14.54,77.31,51.33,59.8,136.13
			c-16.27,78.79,45.55,142.16,126.4,150.14C258.2,293.37,397.87,240.24,391.21,193.6z"/>
		<path class="st10" d="M391.21,193.6c-3.6-38.86-87.68-129.09-149.77-150.84C160.92,14.54,77.31,51.33,59.8,136.13
			c-16.27,78.79,45.55,142.16,126.4,150.14C258.2,293.37,397.87,240.24,391.21,193.6z"/>
	</g>
</g>
<g id="Shadow_1_">
	<ellipse id="_x3C_Path_x3E__84_" class="st6" cx="250" cy="373.57" rx="193.89" ry="11.32"/>
</g>
<g id="Board">
	<g>
		<rect x="253.61" y="69.76" class="st11" width="192.78" height="140.43"/>
		<path class="st3" d="M304.84,134.5c-1,0-1.93-0.4-2.83-0.78c-0.64-0.27-1.24-0.52-1.85-0.64c-0.64-0.13-1.34-0.12-2.01-0.12
			c-0.97,0.01-1.97,0.01-2.86-0.35c-0.91-0.38-1.61-1.1-2.3-1.79c-0.49-0.5-0.95-0.97-1.48-1.32c-0.53-0.36-1.18-0.62-1.8-0.87
			c-0.9-0.37-1.83-0.74-2.52-1.43c-0.69-0.69-1.06-1.62-1.43-2.52c-0.25-0.62-0.51-1.27-0.87-1.8c-0.35-0.53-0.82-0.99-1.32-1.48
			c-0.7-0.68-1.42-1.39-1.79-2.3c-0.37-0.89-0.36-1.89-0.35-2.86c0.01-0.68,0.01-1.38-0.12-2.01c-0.12-0.61-0.38-1.21-0.64-1.85
			c-0.38-0.9-0.78-1.84-0.78-2.83s0.4-1.93,0.78-2.83c0.27-0.64,0.52-1.24,0.64-1.85c0.13-0.64,0.12-1.34,0.12-2.01
			c-0.01-0.97-0.01-1.97,0.35-2.86c0.38-0.91,1.1-1.61,1.79-2.3c0.5-0.49,0.97-0.95,1.32-1.48c0.36-0.53,0.62-1.18,0.87-1.8
			c0.37-0.9,0.74-1.83,1.43-2.52c0.69-0.69,1.62-1.06,2.52-1.43c0.62-0.25,1.27-0.51,1.8-0.87c0.53-0.35,0.99-0.82,1.48-1.32
			c0.68-0.7,1.39-1.42,2.3-1.79c0.89-0.37,1.89-0.36,2.86-0.35c0.68,0.01,1.38,0.01,2.01-0.12c0.61-0.12,1.21-0.38,1.85-0.64
			c0.9-0.38,1.84-0.78,2.83-0.78s1.93,0.4,2.84,0.78c0.64,0.27,1.24,0.52,1.84,0.64c0.64,0.13,1.34,0.12,2.01,0.12
			c0.97-0.01,1.97-0.01,2.86,0.35c0.91,0.38,1.61,1.1,2.3,1.79c0.49,0.5,0.95,0.97,1.48,1.32c0.53,0.36,1.18,0.62,1.8,0.87
			c0.9,0.37,1.83,0.74,2.52,1.43c0.69,0.69,1.06,1.62,1.43,2.52c0.25,0.62,0.51,1.27,0.87,1.8c0.35,0.53,0.82,0.99,1.32,1.48
			c0.7,0.68,1.42,1.39,1.79,2.3c0.37,0.89,0.36,1.89,0.35,2.86c-0.01,0.68-0.01,1.38,0.12,2.01c0.12,0.61,0.38,1.21,0.65,1.85
			c0.38,0.9,0.78,1.84,0.78,2.83c0,1-0.4,1.93-0.78,2.83c-0.27,0.64-0.52,1.24-0.65,1.85c-0.13,0.64-0.12,1.34-0.12,2.01
			c0.01,0.97,0.01,1.97-0.35,2.86c-0.38,0.91-1.1,1.61-1.79,2.3c-0.5,0.49-0.97,0.95-1.32,1.48c-0.36,0.53-0.62,1.18-0.87,1.8
			c-0.37,0.9-0.74,1.83-1.43,2.52c-0.69,0.69-1.62,1.06-2.52,1.43c-0.62,0.25-1.27,0.51-1.8,0.87c-0.53,0.35-0.99,0.82-1.48,1.32
			c-0.68,0.7-1.39,1.42-2.3,1.79c-0.89,0.37-1.89,0.36-2.86,0.35c-0.68-0.01-1.38-0.01-2.01,0.12c-0.61,0.12-1.21,0.38-1.85,0.64
			C306.77,134.1,305.84,134.5,304.84,134.5z M298.55,132.45c0.57,0,1.15,0.02,1.71,0.13c0.66,0.13,1.31,0.41,1.94,0.68
			c0.86,0.36,1.74,0.74,2.64,0.74s1.78-0.38,2.64-0.74c0.63-0.27,1.28-0.54,1.94-0.68c0.69-0.14,1.41-0.13,2.12-0.13
			c0.96,0.01,1.87,0.01,2.66-0.31c0.81-0.34,1.45-0.99,2.13-1.68c0.48-0.49,0.99-1.01,1.55-1.39c0.58-0.39,1.24-0.66,1.89-0.92
			c0.89-0.36,1.74-0.7,2.35-1.32c0.61-0.61,0.96-1.46,1.32-2.35c0.26-0.65,0.53-1.32,0.92-1.89c0.38-0.57,0.89-1.07,1.39-1.56
			c0.69-0.68,1.35-1.32,1.68-2.13c0.33-0.79,0.32-1.7,0.31-2.66c-0.01-0.7-0.01-1.43,0.13-2.12c0.13-0.66,0.41-1.31,0.68-1.94
			c0.36-0.86,0.74-1.74,0.74-2.64c0-0.89-0.38-1.78-0.74-2.64c-0.27-0.63-0.54-1.28-0.68-1.94c-0.14-0.69-0.13-1.41-0.13-2.12
			c0.01-0.96,0.01-1.87-0.31-2.66c-0.34-0.81-0.99-1.45-1.68-2.13c-0.49-0.49-1.01-0.99-1.39-1.56c-0.39-0.58-0.66-1.24-0.92-1.89
			c-0.36-0.89-0.7-1.74-1.32-2.35c-0.61-0.61-1.46-0.96-2.35-1.32c-0.65-0.26-1.32-0.53-1.89-0.92c-0.57-0.38-1.07-0.89-1.56-1.39
			c-0.68-0.69-1.32-1.35-2.13-1.68c-0.79-0.33-1.7-0.32-2.66-0.31c-0.7,0.01-1.43,0.01-2.12-0.13c-0.66-0.13-1.31-0.41-1.94-0.68
			c-0.86-0.36-1.74-0.74-2.64-0.74s-1.78,0.38-2.64,0.74c-0.63,0.27-1.28,0.54-1.94,0.68c-0.69,0.14-1.41,0.13-2.12,0.13
			c-0.96-0.01-1.87-0.01-2.66,0.31c-0.81,0.34-1.45,0.99-2.13,1.68c-0.49,0.49-0.99,1.01-1.56,1.39c-0.58,0.39-1.24,0.66-1.89,0.92
			c-0.89,0.36-1.74,0.71-2.35,1.32c-0.61,0.61-0.96,1.46-1.32,2.35c-0.26,0.65-0.53,1.32-0.92,1.89c-0.38,0.57-0.89,1.07-1.39,1.56
			c-0.69,0.68-1.35,1.32-1.68,2.13c-0.33,0.79-0.32,1.7-0.31,2.66c0.01,0.7,0.01,1.43-0.13,2.12c-0.13,0.66-0.41,1.31-0.68,1.94
			c-0.36,0.86-0.74,1.74-0.74,2.64s0.38,1.78,0.74,2.64c0.27,0.63,0.54,1.28,0.68,1.94c0.14,0.69,0.13,1.41,0.13,2.12
			c-0.01,0.96-0.01,1.87,0.31,2.66c0.34,0.81,0.99,1.45,1.68,2.13c0.49,0.48,1.01,0.99,1.39,1.56c0.39,0.58,0.66,1.24,0.92,1.89
			c0.36,0.89,0.7,1.74,1.32,2.35c0.61,0.61,1.46,0.96,2.35,1.32c0.65,0.26,1.32,0.53,1.89,0.92c0.57,0.38,1.07,0.89,1.56,1.39
			c0.68,0.69,1.32,1.35,2.13,1.68c0.79,0.33,1.7,0.32,2.66,0.31C298.28,132.45,298.41,132.45,298.55,132.45z"/>
		<circle class="st3" cx="304.84" cy="109.55" r="14.03"/>
		<path class="st3" d="M314.86,95.77c-0.06,0-0.13-0.02-0.18-0.07c-0.1-0.1-0.1-0.26,0-0.36l10.96-10.96
			c0.05-0.05,0.11-0.07,0.18-0.07h21.7c0.14,0,0.25,0.11,0.25,0.25c0,0.14-0.11,0.25-0.25,0.25h-21.6l-10.89,10.89
			C314.99,95.74,314.92,95.77,314.86,95.77z"/>
		<path class="st3" d="M287.56,149.08h-21.7c-0.14,0-0.25-0.11-0.25-0.25c0-0.14,0.11-0.25,0.25-0.25h21.6l10.89-10.89
			c0.1-0.1,0.26-0.1,0.36,0c0.1,0.1,0.1,0.26,0,0.36l-10.96,10.96C287.69,149.06,287.63,149.08,287.56,149.08z"/>
		<g>
			<path class="st3" d="M360.22,85.19c-0.07,0-0.13-0.03-0.17-0.09c-0.07-0.1-0.05-0.23,0.05-0.3c0.83-0.6,1.74-1.15,2.7-1.65
				c0.4-0.21,0.88-0.43,1.41-0.43c0,0,0,0,0,0c0.52,0,0.95,0.2,1.38,0.4c0.16,0.08,0.33,0.15,0.49,0.21
				c1.43,0.54,2.99,0.12,4.65-0.31c1.48-0.39,3.01-0.79,4.49-0.5c0.37,0.07,0.71,0.19,1.05,0.3c0.2,0.07,0.41,0.13,0.62,0.19
				c2.01,0.56,4.23,0.22,6.38-0.11c0.45-0.07,0.89-0.14,1.33-0.2c2.91-0.39,5.15-0.23,6.86,0.5c0.28,0.12,0.56,0.26,0.83,0.4
				c0.67,0.34,1.31,0.66,2.06,0.72c0.84,0.07,1.62-0.2,2.44-0.48c0.27-0.09,0.53-0.18,0.8-0.26c2.42-0.71,5.09-0.46,7.67-0.21
				l0.47,0.04c7.01,0.65,14.12,0.7,21.14,0.14c0.12-0.01,0.22,0.08,0.23,0.2c0.01,0.12-0.08,0.22-0.2,0.23
				c-7.05,0.56-14.18,0.51-21.21-0.14l-0.47-0.04c-2.54-0.24-5.17-0.49-7.51,0.2c-0.26,0.08-0.52,0.17-0.78,0.25
				c-0.83,0.28-1.69,0.57-2.62,0.5c-0.84-0.07-1.54-0.42-2.22-0.77c-0.27-0.14-0.53-0.27-0.81-0.39c-1.63-0.7-3.8-0.85-6.63-0.47
				c-0.44,0.06-0.88,0.13-1.33,0.19c-2.19,0.33-4.46,0.68-6.56,0.1c-0.21-0.06-0.43-0.13-0.64-0.2c-0.34-0.11-0.66-0.22-1-0.28
				c-1.38-0.27-2.87,0.12-4.3,0.49c-1.65,0.43-3.36,0.88-4.92,0.3c-0.18-0.07-0.35-0.15-0.52-0.23c-0.4-0.18-0.78-0.34-1.2-0.36
				c-0.44,0-0.84,0.19-1.21,0.38c-0.94,0.48-1.83,1.03-2.64,1.61C360.31,85.18,360.26,85.19,360.22,85.19z"/>
			<path class="st3" d="M398.11,90.92c-0.88,0-1.75-0.3-2.59-0.6c-0.86-0.3-1.73-0.62-2.65-0.61c-0.63,0.01-1.23,0.16-1.86,0.33
				c-0.39,0.11-0.8,0.21-1.22,0.28c-1.09,0.18-2.21,0.07-3.3-0.04l-0.13-0.01c-4.88-0.47-9.89-0.65-14.73-0.83
				c-1.67-0.06-3.53,0.21-3.77,1.14c-0.02,0.09-0.09,0.15-0.18,0.16c-0.09,0.01-0.17-0.03-0.22-0.11c-0.5-0.91-2.05-1.3-3.33-1.21
				c-1.4,0.09-2.71,0.63-3.86,1.11c-0.11,0.05-0.24-0.01-0.28-0.12c-0.05-0.11,0.01-0.24,0.12-0.28c1.18-0.49,2.52-1.05,3.99-1.14
				c1.22-0.08,2.75,0.24,3.5,1.11c0.7-1.08,3-1.12,4.03-1.09c4.85,0.18,9.86,0.36,14.75,0.83l0.13,0.01
				c1.06,0.1,2.15,0.21,3.19,0.04c0.4-0.06,0.79-0.17,1.18-0.27c0.63-0.17,1.28-0.34,1.96-0.35c0.98,0,1.9,0.32,2.79,0.63
				c1.1,0.39,2.15,0.76,3.2,0.48c0.35-0.09,0.65-0.24,0.97-0.4c0.17-0.09,0.34-0.17,0.52-0.25c1.6-0.69,3.48-0.56,5.3-0.44
				c1.05,0.07,2.13,0.14,3.15,0.06c0.12-0.01,0.22,0.08,0.23,0.2c0.01,0.12-0.08,0.22-0.2,0.23c-1.05,0.08-2.15,0.01-3.22-0.06
				c-1.85-0.12-3.6-0.23-5.11,0.41c-0.17,0.07-0.33,0.16-0.5,0.24c-0.33,0.16-0.67,0.33-1.06,0.43
				C398.69,90.89,398.4,90.92,398.11,90.92z"/>
			<path class="st3" d="M360.22,97.52c-0.08,0-0.16-0.05-0.2-0.13c-0.05-0.11,0.01-0.24,0.12-0.28c1.63-0.67,3.35-1.23,5.12-1.68
				c0.85-0.21,1.85-0.43,2.86-0.35c0.6,0.05,1.17,0.2,1.72,0.35c0.56,0.15,1.09,0.3,1.66,0.34c0.65,0.05,1.33-0.03,2-0.12
				c1-0.12,2.04-0.25,2.98,0.08c0.3,0.11,0.56,0.25,0.81,0.4c0.26,0.15,0.5,0.28,0.78,0.38c1.3,0.45,2.6-0.14,3.97-0.77
				c1.24-0.56,2.52-1.15,3.9-1.01c0.95,0.1,1.76,0.53,2.54,0.95c0.89,0.48,1.73,0.94,2.75,0.88c0.46-0.02,0.9-0.16,1.34-0.29
				l0.13-0.04c3.54-1.06,7.42-1.46,11.23-1.13l0.2,0.02c0.52,0.05,1.06,0.09,1.58,0.03c0.32-0.04,0.63-0.12,0.96-0.2
				c0.23-0.06,0.46-0.12,0.7-0.16c1.44-0.27,2.92,0.02,4.35,0.3c0.28,0.05,0.55,0.11,0.83,0.16c3.67,0.67,7.66,0.54,11.24-0.35
				c0.12-0.03,0.23,0.04,0.26,0.16c0.03,0.12-0.04,0.23-0.16,0.26c-3.63,0.91-7.69,1.04-11.42,0.36c-0.28-0.05-0.55-0.11-0.83-0.16
				c-1.39-0.27-2.82-0.56-4.18-0.3c-0.23,0.04-0.45,0.1-0.67,0.16c-0.33,0.08-0.66,0.17-1.01,0.21c-0.56,0.07-1.12,0.02-1.66-0.03
				l-0.2-0.02c-3.75-0.32-7.58,0.06-11.07,1.11l-0.13,0.04c-0.46,0.14-0.93,0.28-1.44,0.31c-1.13,0.06-2.07-0.44-2.97-0.93
				c-0.74-0.4-1.51-0.81-2.38-0.9c-1.26-0.13-2.49,0.43-3.68,0.97c-1.39,0.63-2.82,1.29-4.29,0.79c-0.31-0.11-0.59-0.26-0.85-0.41
				c-0.25-0.14-0.48-0.27-0.75-0.37c-0.84-0.3-1.78-0.19-2.78-0.06c-0.68,0.08-1.39,0.17-2.08,0.12c-0.61-0.05-1.18-0.2-1.74-0.35
				c-0.56-0.15-1.08-0.29-1.64-0.34c-0.95-0.08-1.9,0.13-2.72,0.34c-1.75,0.44-3.45,1-5.06,1.66
				C360.27,97.52,360.25,97.52,360.22,97.52z"/>
			<g>
				<path class="st3" d="M360.22,102.94c-0.1,0-0.18-0.07-0.21-0.16c-0.03-0.12,0.04-0.23,0.16-0.26c1.95-0.49,3.98-0.8,6.03-0.93
					c0.59-0.04,1.21-0.06,1.77,0.13c0.13,0.04,0.25,0.09,0.37,0.14c0.17,0.07,0.33,0.14,0.5,0.17c0.36,0.08,0.77,0.01,1.16-0.05
					c1.8-0.29,3.6-0.41,5.4-0.38c0.12,0,0.21,0.1,0.21,0.22c0,0.12-0.08,0.21-0.22,0.21c-1.77-0.03-3.55,0.1-5.28,0.37
					c-0.48,0.08-0.92,0.15-1.36,0.05c-0.21-0.04-0.4-0.12-0.58-0.2c-0.11-0.05-0.22-0.09-0.34-0.13c-0.5-0.16-1.07-0.14-1.62-0.11
					c-2.03,0.12-4.03,0.43-5.95,0.91C360.25,102.94,360.24,102.94,360.22,102.94z"/>
				<path class="st3" d="M383.78,102.2c-0.11,0-0.21-0.09-0.21-0.21c0-0.12,0.09-0.22,0.21-0.22c1.2-0.04,2.42-0.04,3.59-0.04
					l0.09,0c8.59,0.02,17.29-0.02,25.87-0.12c0,0,0,0,0,0c0.12,0,0.21,0.09,0.22,0.21c0,0.12-0.09,0.22-0.21,0.22
					c-8.58,0.1-17.29,0.13-25.88,0.12l-0.09,0C386.19,102.16,384.97,102.16,383.78,102.2C383.78,102.2,383.78,102.2,383.78,102.2z"
					/>
			</g>
		</g>
		<g class="st12">
			<path class="st3" d="M412.05,155.97c0,2.4-1.66,4.6-2.11,6.87c-0.46,2.34,0.22,5.01-0.67,7.16c-0.91,2.19-3.28,3.59-4.59,5.53
				c-1.31,1.96-1.71,4.69-3.37,6.35c-1.66,1.66-4.39,2.05-6.35,3.37c-1.94,1.3-3.35,3.68-5.53,4.59c-2.15,0.89-4.82,0.21-7.16,0.67
				c-2.27,0.45-4.47,2.11-6.87,2.11s-4.6-1.66-6.87-2.11c-2.34-0.46-5.01,0.22-7.16-0.67c-2.19-0.91-3.59-3.28-5.53-4.59
				c-1.96-1.31-4.69-1.71-6.35-3.37c-1.66-1.66-2.05-4.39-3.37-6.35c-1.3-1.94-3.68-3.35-4.59-5.53c-0.89-2.15-0.21-4.82-0.67-7.16
				c-0.45-2.27-2.11-4.47-2.11-6.87c0-2.4,1.66-4.6,2.11-6.87c0.46-2.34-0.22-5.01,0.67-7.16c0.91-2.19,3.28-3.59,4.59-5.53
				c1.31-1.96,1.71-4.69,3.37-6.35c1.66-1.66,4.39-2.05,6.35-3.37c1.94-1.3,3.35-3.68,5.53-4.59c2.15-0.89,4.82-0.21,7.16-0.67
				c2.27-0.45,4.47-2.11,6.87-2.11c2.4,0,4.6,1.66,6.87,2.11c2.34,0.46,5.01-0.22,7.16,0.67c2.19,0.91,3.59,3.28,5.53,4.59
				c1.96,1.31,4.69,1.71,6.35,3.37c1.66,1.66,2.05,4.39,3.37,6.35c1.3,1.94,3.68,3.35,4.59,5.53c0.89,2.15,0.21,4.82,0.67,7.16
				C410.39,151.36,412.05,153.57,412.05,155.97z"/>
		</g>
		<g>
			<path class="st9" d="M267.18,199.43h18.62c1.06,0,1.93,0.87,1.93,1.93v3.41c0,1.06-0.87,1.93-1.93,1.93h-18.62
				c-1.06,0-1.93-0.87-1.93-1.93v-3.41C265.25,200.3,266.12,199.43,267.18,199.43z"/>
			<path class="st3" d="M266.38,199.43h20.22c0.62,0,1.13-0.51,1.13-1.13v-0.76c0-0.62-0.51-1.13-1.13-1.13h-20.22
				c-0.62,0-1.13,0.51-1.13,1.13v0.76C265.25,198.92,265.76,199.43,266.38,199.43z"/>
		</g>
		<rect x="348.49" y="209.35" class="st11" width="3.02" height="158.76"/>
		<path class="st11" d="M354.17,324.28h-8.34c-0.94,0-1.7-0.76-1.7-1.7v-2.18c0-0.94,0.76-1.7,1.7-1.7h8.34c0.94,0,1.7,0.76,1.7,1.7
			v2.18C355.87,323.52,355.11,324.28,354.17,324.28z"/>
		<polygon class="st11" points="320.12,368.11 317.09,368.11 348.49,321.49 351.51,321.49 		"/>
		<polygon class="st11" points="379.88,368.11 382.9,368.11 351.51,321.49 348.49,321.49 		"/>
		<path class="st4" d="M446.97,71.18H253.03c-0.79,0-1.42-0.64-1.42-1.42l0,0c0-0.79,0.64-1.42,1.42-1.42h193.94
			c0.79,0,1.42,0.64,1.42,1.42l0,0C448.39,70.54,447.76,71.18,446.97,71.18z"/>
		<polygon class="st4" points="454.7,206.7 245.3,206.7 250.18,211.99 449.82,211.99 		"/>
	</g>
</g>
<g id="Character_1">
	<g>
		<rect x="103.84" y="252.56" class="st9" width="95.99" height="2.35"/>
		<rect x="174.38" y="252.56" class="st11" width="25.45" height="2.35"/>
		<path class="st11" d="M160.64,371.66h-1.46l-6.05-62.05c-0.5-5.15-3.86-9.04-7.79-9.04H133.4c-3.94,0-7.29,3.89-7.79,9.04
			l-6.05,62.05h-1.46l6.08-62.29c0.59-6.09,4.56-10.69,9.22-10.69h11.94c4.66,0,8.63,4.6,9.22,10.69L160.64,371.66z"/>
		<path class="st11" d="M115.47,371.66h-1.46l-6.05-62.05c-0.5-5.15-3.86-9.04-7.79-9.04H88.23c-3.94,0-7.29,3.89-7.79,9.04
			l-6.05,62.05h-1.46l6.08-62.29c0.59-6.09,4.56-10.69,9.22-10.69h11.94c4.66,0,8.63,4.6,9.22,10.69L115.47,371.66z"/>
		<g>
			<g>
				<path class="st11" d="M108.96,171.86c0.22,0.63,0.73,1.03,1.14,0.9c0.41-0.13,0.57-0.74,0.35-1.36
					c-0.22-0.63-0.73-1.03-1.14-0.9C108.9,170.63,108.75,171.24,108.96,171.86z"/>
				<path class="st13" d="M109.57,172.3c0,0,2.44,2.56,4.36,3.52c-0.58,1.21-2.33,1.41-2.33,1.41L109.57,172.3z"/>
				<path class="st11" d="M106.33,169.84c-0.06,0.02-0.13,0.03-0.19,0.02c-0.21-0.04-0.35-0.24-0.32-0.45
					c0.37-2.09,2.03-2.78,2.1-2.81c0.18-0.09,0.43,0.02,0.51,0.22c0.08,0.2-0.02,0.42-0.22,0.51c-0.07,0.03-1.34,0.58-1.63,2.22
					C106.56,169.68,106.45,169.8,106.33,169.84z"/>
				<path class="st14" d="M89.63,181.61l6.42,6.08l8.51,4.78c-0.3,0.27-0.19,2.18-0.07,3.13c0.27,1.98,0.8,3.5,3.5,4.61
					c1.04,0.43,2.03,0.97,2.19,1.93c0.2,1.16-0.65,2.61-5.41,3.29c-5.52,0.79-9.95-0.48-13.43-1.89c-2.01-0.81-1.66-1.72-1.15-3.62
					C91.47,195.07,91.18,186.51,89.63,181.61z"/>
				<path class="st11" d="M87.07,202.15c1.71-4.44,2.43-7.84,2.43-7.84s13.03-0.94,17.33,0.76c4.3,1.7,6.97,9.07,6.97,9.07
					L87.07,202.15z"/>
				<path class="st14" d="M88.21,178.18c3.07,7.32,4.49,11.77,9.6,14.23c7.67,3.7,15.67-3.11,14.84-11.24
					c-0.75-7.32-5.64-18.06-13.97-18.36C90.47,162.51,85.14,170.86,88.21,178.18z"/>
				<path class="st11" d="M103.65,177.79c2.89-3.29,0.88-8.98-1.68-11.23c2.49-0.08,8.9-0.65,6.98-6.18
					c-1.93-5.53-8.5-6.18-10.43-3.45c-5.45-3.05-12.03-0.4-10.43,3.77c-6.42-0.96-8.26,5.37-5.62,7.94
					c-3.37,2.81-4.57,8.34-0.16,10.43c4.41,2.09,4.49,7.3,8.98,10.03C95.79,191.82,106.14,187.18,103.65,177.79z"/>
				<path class="st14" d="M99.94,178.9c1.03,1.63,2.66,2.69,4.13,3.08c2.21,0.59,3.28-1.86,2.46-3.95c-0.74-1.88-2.98-4.02-5.1-3.69
					C99.34,174.68,98.76,177.03,99.94,178.9z"/>
				<g>
					<g>
						<g>
							<g>
								<g>
									<path class="st14" d="M93.17,211.93l-6.5,12.99c-1.09,2.17-2.15,4.33-3.18,6.49c-1.03,2.15-2.06,4.31-2.95,6.43
										c-0.48,1.07-0.88,2.09-1.32,3.14l-0.55,1.49l-0.07,0.19l-0.03,0.09l-0.02,0.05l-0.01,0.02l0.02-0.1
										c0.13-0.54,0.14-0.99,0.13-1.29c-0.03-0.61-0.13-0.82-0.18-0.92c-0.09-0.14-0.06,0.13,0.05,0.46
										c0.11,0.33,0.28,0.74,0.5,1.17c0.43,0.86,0.98,1.81,1.54,2.78c2.34,3.88,5.21,7.94,7.82,12.07l0.06,0.1
										c1.15,1.82,0.6,4.22-1.22,5.37c-1.32,0.83-2.95,0.77-4.18-0.02c-2.24-1.44-4.29-2.94-6.31-4.6
										c-2.02-1.65-3.97-3.39-5.86-5.37c-0.96-0.99-1.89-2.04-2.81-3.25c-0.46-0.61-0.93-1.26-1.4-2.03
										c-0.47-0.78-0.95-1.64-1.39-2.97c-0.21-0.7-0.43-1.52-0.47-2.75c-0.02-0.6,0.03-1.36,0.24-2.21l0.16-0.64l0.54-2.06
										c0.39-1.29,0.77-2.63,1.2-3.87c0.85-2.53,1.78-4.93,2.73-7.33c0.99-2.37,1.98-4.73,3.03-7.04
										c2.11-4.64,4.31-9.13,6.81-13.63c2.07-3.72,6.75-5.06,10.47-2.99c3.62,2.01,4.98,6.5,3.16,10.16L93.17,211.93z"/>
									<g>
										<g>
											<path class="st9" d="M88.12,198.9c8.37,0.31,12.18,6.58,5.24,17.73c-5.97,9.59-6.79,9.79-6.79,9.79l-15.17-7.51
												C76.5,209.19,79.55,198.58,88.12,198.9z"/>
										</g>
										<g class="st15">
											<path d="M88.12,198.9c8.37,0.31,12.18,6.58,5.24,17.73c-5.97,9.59-6.79,9.79-6.79,9.79l-15.17-7.51
												C76.5,209.19,79.55,198.58,88.12,198.9z"/>
										</g>
									</g>
									<path class="st14" d="M92.48,258.73l-0.85-0.94c-2.62-2.44-3.74-2.13-6.75-2.13l-3.67,2.74c2.22,6.1,6.71,5.83,6.71,5.83
										l1.31,1.21c1.24,1.15,3.24,0.65,3.8-0.94l0.38-1.08C93.98,261.8,93.62,260,92.48,258.73z"/>
								</g>
								<g>
									<polygon class="st14" points="180.45,349.55 187.62,345.53 179.99,328.05 172.82,332.08 									"/>
									<polygon class="st16" points="176.52,340.55 183.8,336.78 179.99,328.05 172.82,332.08 									"/>
									<path class="st11" d="M186.69,341.86l-9.2,0.65c-0.33,0.02-0.57,0.27-0.57,0.6l0.07,7.31c0.01,0.76,0.77,1.42,1.54,1.35
										c3.2-0.28,4.49-1.08,8.51-1.65c2.47-0.35,8.4-0.7,11.72-1.61c3.25-0.89,2.79-3.98,0.06-3.86
										c-3.53,0.15-8.25-0.73-10.69-2.38C187.69,341.96,187.18,341.82,186.69,341.86z"/>
									<g>
										<path class="st11" d="M123.96,265.82c0,0,41.88-2.5,45.42,13.75c7.21,33.05,14.15,51.33,14.15,51.33l-11.08,5.72
											c0,0-16.28-22.86-21.1-46.28c-17.06-2.56-46.87,6.47-54.01-6.34c-6.3-11.31-0.77-19.42-0.77-19.42L123.96,265.82z"/>
									</g>
									<polygon class="st9" points="172.7,339.6 185.6,333.34 184.15,328.05 169.97,334.71 									"/>
									<path class="st9" d="M189.69,343.08c-0.76,0.05-1.6-0.04-2.2-0.14c-0.07-0.01-0.14-0.07-0.15-0.14
										c-0.02-0.07,0.01-0.15,0.06-0.2c0.25-0.2,2.45-1.95,3.48-1.63c0.24,0.07,0.41,0.25,0.48,0.51
										c0.13,0.43,0.07,0.78-0.17,1.05C190.89,342.88,190.32,343.03,189.69,343.08z M187.99,342.63c1.48,0.19,2.56,0.07,2.92-0.34
										c0.15-0.17,0.18-0.39,0.09-0.69c-0.04-0.14-0.11-0.22-0.23-0.25C190.21,341.17,188.9,341.96,187.99,342.63z"/>
									<path class="st9" d="M187.53,342.94c-0.03,0-0.06,0-0.09-0.01c-0.06-0.03-0.1-0.08-0.11-0.15c-0.02-0.1-0.37-2.44,0.4-3.29
										c0.21-0.23,0.47-0.34,0.79-0.32c0.38,0.02,0.64,0.21,0.73,0.53c0.25,0.88-0.85,2.67-1.63,3.22
										C187.6,342.93,187.57,342.94,187.53,342.94z M188.42,339.55c-0.16,0.01-0.29,0.08-0.4,0.2c-0.46,0.51-0.43,1.86-0.35,2.64
										c0.67-0.65,1.39-2.01,1.22-2.58c-0.03-0.11-0.1-0.24-0.38-0.25C188.47,339.54,188.44,339.54,188.42,339.55z"/>
								</g>
								<g>
									<polygon class="st14" points="133.19,364.53 141.33,364.15 142.66,344.93 134.52,345.31 									"/>
									<path class="st11" d="M142.15,361.56l-9.21-0.29c-0.34-0.01-0.6,0.21-0.63,0.54l-0.68,7.28c-0.07,0.75,0.62,1.49,1.39,1.5
										c3.21,0.05,4.56-0.36,8.61-0.23c2.49,0.08,7.03,0.49,11.2,0.49s2.51-3.4,0.27-3.72c-3.5-0.5-7.3-3.12-9.56-5.02
										C143.14,361.77,142.65,361.58,142.15,361.56z"/>
									<path class="st9" d="M145.02,363.08c-0.76-0.02-1.59-0.21-2.18-0.36c-0.07-0.02-0.13-0.08-0.14-0.15
										c-0.01-0.08,0.02-0.15,0.08-0.19c0.27-0.17,2.64-1.69,3.63-1.26c0.23,0.1,0.38,0.29,0.43,0.56
										c0.08,0.44-0.01,0.78-0.27,1.03C146.23,363.01,145.65,363.1,145.02,363.08z M143.37,362.46c1.46,0.34,2.54,0.33,2.93-0.04
										c0.16-0.15,0.22-0.37,0.16-0.68c-0.03-0.14-0.09-0.23-0.2-0.28C145.73,361.24,144.35,361.88,143.37,362.46z"/>
									<path class="st9" d="M142.88,362.73c-0.03,0-0.06-0.01-0.09-0.02c-0.06-0.03-0.09-0.09-0.1-0.16c0-0.1-0.11-2.46,0.74-3.24
										c0.23-0.21,0.51-0.29,0.82-0.24c0.38,0.06,0.62,0.27,0.67,0.6c0.16,0.9-1.12,2.57-1.95,3.03
										C142.95,362.72,142.92,362.73,142.88,362.73z M144.11,359.44c-0.16-0.01-0.3,0.05-0.42,0.15
										c-0.51,0.46-0.62,1.81-0.62,2.59c0.73-0.58,1.59-1.85,1.48-2.45c-0.02-0.11-0.08-0.25-0.36-0.29
										C144.17,359.44,144.14,359.44,144.11,359.44z"/>
									<g>
										<polygon class="st16" points="134.52,345.32 142.66,344.93 141.89,355.92 133.78,355.91 										"/>
									</g>
									<path class="st11" d="M104.84,264.95c0,0,50.84,9.47,49.85,23.76c-1.77,25.71-10.39,62.45-10.39,62.45l-12.21,0.17
										c0,0-1.67-38.21-0.16-56.82c-15.25,0-45.26-0.53-51.13-8.37c-6.49-8.66,0.19-22.27,0.19-22.27L104.84,264.95z"/>
									<polygon class="st9" points="131.06,353.54 146.47,353.31 147.2,348.3 130.42,348.8 									"/>
								</g>
								<g>
									<path class="st9" d="M115.76,199.47c-4.99-0.97-27.52-0.69-27.52-0.69c-4.65-0.12-8.65,3.32-9.18,7.95
										c-0.79,6.95,1.55,22.31,1.7,30.23c0.19,9.72,0.4,13.82,0.22,26.9l52.43,2.74c1.94-23.83-5.78-35.33-10.4-59.06
										C122.32,203.97,120.75,200.44,115.76,199.47z"/>
									<path class="st15" d="M115.76,199.47c-4.99-0.97-27.52-0.69-27.52-0.69c-4.65-0.12-8.65,3.32-9.18,7.95
										c-0.79,6.95,1.55,22.31,1.7,30.23c0.19,9.72,0.4,13.82,0.22,26.9l52.43,2.74c1.94-23.83-5.78-35.33-10.4-59.06
										C122.32,203.97,120.75,200.44,115.76,199.47z"/>
								</g>
								<g>
									<path class="st14" d="M122.14,207.15c2.36,4.2,4.79,8.6,7.24,12.82c1.21,2.13,2.46,4.22,3.73,6.26
										c1.24,2.08,2.56,4.02,3.85,5.9l0.98,1.35c0.33,0.46,0.65,0.82,0.97,1.24l0.24,0.3l0.12,0.15l0.03,0.04l-0.04-0.04
										l-0.08-0.07c-0.06-0.05-0.12-0.09-0.18-0.13c-0.04-0.02-0.02-0.01-0.03-0.01c-0.01,0-0.05,0,0.02,0.05
										c0.12,0.15,0.56,0.42,0.93,0.69c1.72,1.11,3.93,2.24,6.08,3.38c4.36,2.27,8.92,4.52,13.34,7.03l0.06,0.03
										c1.87,1.06,2.52,3.43,1.46,5.3c-0.79,1.4-2.33,2.11-3.83,1.94c-5.24-0.61-10.28-1.66-15.39-3.04
										c-2.58-0.7-5.07-1.48-7.88-2.66c-0.75-0.33-1.43-0.65-2.37-1.21c-0.2-0.11-0.49-0.31-0.75-0.49
										c-0.14-0.1-0.25-0.17-0.41-0.29l-0.53-0.45l-0.26-0.23l-0.18-0.17l-0.2-0.2l-0.4-0.4c-0.52-0.53-1.09-1.08-1.55-1.61
										l-1.43-1.6c-3.6-4.29-6.61-8.63-9.43-13.07c-2.8-4.47-5.38-8.9-7.76-13.67c-1.9-3.81-0.35-8.43,3.45-10.33
										c3.69-1.84,8.14-0.45,10.14,3.1L122.14,207.15z"/>
									<g>
										<g>
											<path class="st9" d="M108.08,204.42c4.51-7.06,11.85-7.16,17.94,4.48c5.24,10.01,4.99,10.82,4.99,10.82l-14.17,9.26
												C111.05,219.66,103.46,211.65,108.08,204.42z"/>
										</g>
										<g class="st15">
											<path d="M108.08,204.42c4.51-7.06,11.85-7.16,17.94,4.48c5.24,10.01,4.99,10.82,4.99,10.82l-14.17,9.26
												C111.05,219.66,103.46,211.65,108.08,204.42z"/>
										</g>
									</g>
									<path class="st14" d="M163.16,245.47l-1.24-0.23c-3.57-0.32-4.26,0.6-6.64,2.44l-1.22,4.41c5.49,3.47,8.87,0.52,8.87,0.52
										l1.78,0.16c1.68,0.15,2.97-1.47,2.43-3.07l-0.36-1.09C166.23,246.98,164.85,245.78,163.16,245.47z"/>
								</g>
							</g>
						</g>
					</g>
				</g>
			</g>
		</g>
		<path class="st9" d="M53.18,259.55c-0.94-5.5-0.69-11.03,0.71-15.99l0.96,0.27c-1.36,4.82-1.6,10.2-0.69,15.55L53.18,259.55z"/>
		
			<rect x="54.34" y="263.5" transform="matrix(0.9858 -0.1677 0.1677 0.9858 -43.8976 12.9723)" class="st9" width="1" height="5.68"/>
		<path class="st9" d="M156.6,294.3l-22.36-0.89l-5.86-34.46c-3.02-17.74-18.38-32.13-34.3-32.13H80
			c-15.93,0-26.39,14.38-23.37,32.13l4.05,23.78c1.5,8.8,9.11,15.94,17.01,15.94h57.44h31.1c0.84,0,1.1-1.28,0.34-1.67
			C163.34,295.36,159.94,294.43,156.6,294.3z"/>
		<path class="st11" d="M161.87,297.92h-7.09v-1.82h7.09c17.86,0,32.38-16.23,32.38-36.19v-6.18h1.82v6.18
			C196.08,280.87,180.73,297.92,161.87,297.92z"/>
	</g>
</g>
<g id="Character_2">
	<g>
		<rect x="211.65" y="252.56" class="st9" width="95.99" height="2.35"/>
		<rect x="243.57" y="251.38" class="st4" width="32.14" height="1.18"/>
		<rect x="282.19" y="252.56" class="st11" width="25.45" height="2.35"/>
		<path class="st11" d="M268.45,371.66h-1.46l-6.05-62.05c-0.5-5.15-3.86-9.04-7.79-9.04H241.2c-3.94,0-7.29,3.89-7.79,9.04
			l-6.05,62.05h-1.46l6.08-62.29c0.59-6.09,4.56-10.69,9.22-10.69h11.94c4.66,0,8.63,4.6,9.22,10.69L268.45,371.66z"/>
		<path class="st11" d="M223.28,371.66h-1.46l-6.05-62.05c-0.5-5.15-3.86-9.04-7.79-9.04h-11.94c-3.94,0-7.29,3.89-7.79,9.04
			l-6.05,62.05h-1.46l6.08-62.29c0.59-6.09,4.56-10.69,9.22-10.69h11.94c4.66,0,8.63,4.6,9.22,10.69L223.28,371.66z"/>
		<g>
			<g>
				<g>
					<path class="st17" d="M202.87,228.02l-1.93,14.19c-0.61,4.73-1.24,9.46-1.7,14.11l-0.15,1.73l-0.07,0.86
						c0.01-0.06,0-0.29-0.03-0.42c-0.01-0.14-0.06-0.29-0.1-0.4c-0.08-0.23-0.17-0.39-0.24-0.49c-0.15-0.19-0.17-0.17-0.13-0.13
						c0.03,0.05,0.15,0.14,0.29,0.24c0.28,0.2,0.68,0.44,1.12,0.66c1.8,0.88,4.02,1.63,6.21,2.31c4.43,1.38,9.1,2.5,13.7,3.65
						l-0.52,4.04c-4.93-0.16-9.75-0.66-14.67-1.52c-2.47-0.47-4.91-0.98-7.54-1.99c-0.67-0.26-1.35-0.56-2.09-0.98
						c-0.38-0.22-0.76-0.46-1.18-0.8c-0.42-0.34-0.87-0.74-1.35-1.44c-0.24-0.35-0.46-0.78-0.64-1.29c-0.09-0.26-0.15-0.56-0.2-0.84
						c-0.04-0.28-0.05-0.66-0.05-0.87l0.02-0.94l0.06-1.87c0.2-4.94,0.64-9.77,1.17-14.59c0.52-4.82,1.13-9.6,1.89-14.41
						L202.87,228.02z"/>
					<path class="st17" d="M230.5,268.6l-3.1,2.84c-0.72,0.66-1.78,0.82-2.66,0.39l-3.43-1.65c0,0-5.09-0.21-5.81-3.32l1.31-2.41
						l7.88-0.88c0.81-0.09,1.63,0.09,2.32,0.52l3.25,1.98C231.16,266.62,231.28,267.88,230.5,268.6z"/>
					<path class="st17" d="M211.92,198.87c0.8,4.87,1.49,13.76-1.99,16.89c0,0,8.5,4.45,14.07,12.21
						c5.96-4.72,0.97-11.77,0.97-11.77c-5.36-1.45-5.1-5.45-4.05-9.18L211.92,198.87z"/>
					<path class="st11" d="M200.31,217.03c-6.13,1.99-7.44,10.21-6.89,16.6l12.37,7.61c0,0,3-9.34,2.98-14.32
						C208.73,221.61,204.47,215.67,200.31,217.03z"/>
					<path class="st11" d="M239.26,228.96c-0.52,7.04-2.08,18.89-5.94,38.84l-33.12-0.98c0.87-12.23-0.44-21.34-3.44-42.74
						c-0.55-3.91,2.26-7.48,6.18-7.88c2.13-0.22,4.54-0.4,6.97-0.45c5.58-0.1,10.15-0.14,15.04,0.45c1.61,0.2,3.28,0.45,4.87,0.72
						C235.61,217.91,239.69,223.12,239.26,228.96z"/>
					<path class="st11" d="M227.22,189.04c0.2,0.63,0.7,1.03,1.11,0.9c0.41-0.13,0.58-0.75,0.38-1.37s-0.7-1.03-1.11-0.9
						C227.19,187.8,227.02,188.41,227.22,189.04z"/>
					<path class="st11" d="M227.43,187.76l1.36-0.92C228.79,186.84,228.4,188.26,227.43,187.76z"/>
					<path class="st18" d="M227.64,189.99c0,0,1.93,2.35,3.52,3.28c-0.58,1.04-2.1,1.14-2.1,1.14L227.64,189.99z"/>
					<path class="st11" d="M226.2,183.4c0.05-0.12,0.04-0.27-0.04-0.38c-0.13-0.17-0.37-0.21-0.54-0.08
						c-1.72,1.27-1.64,3.05-1.63,3.13c0.01,0.21,0.2,0.38,0.41,0.36c0.21-0.01,0.37-0.19,0.36-0.41l0,0c0-0.06-0.05-1.45,1.32-2.46
						C226.14,183.52,226.18,183.46,226.2,183.4z"/>
					<path class="st17" d="M205.07,193.2c2.95,7.54,4.04,10.79,9.2,13.49c7.76,4.06,16.37-1.22,15.73-9.49
						c-0.58-7.44-5.31-18.52-13.82-19.16C207.79,177.42,202.12,185.66,205.07,193.2z"/>
					<path class="st11" d="M223.18,191.46c1.47-0.42,4-3.33-0.43-9.2c2.38-0.42,4.3-4.78-2.2-7.27c-6.5-2.49-13.59-1.27-17.89,4.69
						c0,0-13.71,4.05-2.54,18.15C211.29,211.94,225.47,206.21,223.18,191.46z"/>
					<path class="st9" d="M197.58,179.67c-0.11,0.7,0.41,1.39,1.08,1.96c1.31,1.11,3.22,1.21,4.67,0.28
						c1.12-0.72,2.56-1.84,4.13-3.54c1.53-1.65,1.41-4.27-0.31-5.72c-0.33-0.28-0.57-0.41-0.57-0.41S198.73,172.51,197.58,179.67z"
						/>
					<path class="st11" d="M198.69,178.73c4.49-0.72,6.87-4.31,7.14-5.38c-1.04-2.65-14-19.42-25.08-7.15
						c-11.7,12.96,11.2,26.07,3.02,41.71C197.95,203.13,209.62,193.27,198.69,178.73z"/>
					<path class="st17" d="M219.94,193.03c0.8,1.61,2.27,2.7,3.69,3.15c2.12,0.67,3.26-1.21,2.74-3.25
						c-0.47-1.84-2.15-4.41-4.31-4.19C219.93,188.96,219.02,191.18,219.94,193.03z"/>
					<polygon class="st17" points="273.53,358.95 281.35,358.21 276.08,338.95 268.26,339.69 					"/>
					<path class="st11" d="M291.89,363.48c-4.78-1.41-4.63-3.51-9.4-7.39c-0.52-0.42-1.09-0.74-1.71-0.78l-7.79-0.54
						c-0.29-0.02-0.55,0.21-0.62,0.54l-1.1,5.39c-0.38,1.86,0.77,3.66,2.38,3.72c2.6,0.1,5.77,0.19,8.6,0.39
						c4.13,0.29,4.18,2.38,9.03,2.14C294.24,366.82,293.52,363.97,291.89,363.48z"/>
					<polygon class="st17" points="302.63,334.18 307.93,329.57 299.06,316.11 292.43,322.39 					"/>
					<path class="st11" d="M306.51,326.72l-6.31,5.85c-0.25,0.23-0.3,0.61-0.11,0.9l3.03,4.64c1.05,1.6,3.15,1.68,4.66,0.51
						c2.07-1.6,3.23-4.41,5.69-6.71c3.56-3.34,4.2-3.25,6.42-7.92c1.49-3.14-1.77-3.16-2.92-2.18c-2.89,2.46-1.76,2.55-8.49,3.98
						C307.74,325.95,307.04,326.22,306.51,326.72z"/>
					<g>
						<path class="st9" d="M221.77,267.23c0,0,53.62-7.93,59.17,5.81c9.66,23.91,23.64,50.86,23.64,50.86l-6.3,5.78
							c0,0-24.01-21.51-32.32-45.54c-9.93,3.21-41.54,13.56-53.11,13.56c-12.36,0-17.41-10.54-12.95-28.04
							c0.4-1.56,1.82-2.64,3.43-2.63C211.11,267.05,221.77,267.23,221.77,267.23z"/>
						<path class="st19" d="M221.77,267.23c0,0,53.62-7.93,59.17,5.81c9.66,23.91,23.64,50.86,23.64,50.86l-6.3,5.78
							c0,0-24.01-21.51-32.32-45.54c-9.93,3.21-41.54,13.56-53.11,13.56c-12.36,0-17.41-10.54-12.95-28.04
							c0.4-1.56,1.82-2.64,3.43-2.63C211.11,267.05,221.77,267.23,221.77,267.23z"/>
					</g>
					<g>
						<path class="st9" d="M226.91,274.21c0,0,44.01-1.33,44.38,14.27c0.61,25.78,8.52,62.67,8.52,62.67l-8.67,0.81
							c0,0-13.12-29.39-16.6-54.57c-15.68,1.02-30.13,0.32-41.7,0.32c-12.97,0-14.04-14.25-1.42-30.87
							C219.15,266.82,226.91,274.21,226.91,274.21z"/>
						<path class="st19" d="M226.91,274.21c0,0,44.01-1.33,44.38,14.27c0.61,25.78,8.52,62.67,8.52,62.67l-8.67,0.81
							c0,0-13.12-29.39-16.6-54.57c-15.68,1.02-30.13,0.32-41.7,0.32c-12.97,0-14.04-14.25-1.42-30.87
							C219.15,266.82,226.91,274.21,226.91,274.21z"/>
					</g>
					<path class="st3" d="M199.77,264.86l-0.94,2.94c-0.12,0.23,0.14,0.47,0.53,0.48l34.09,1.01c0.3,0.01,0.55-0.13,0.57-0.32
						l0.39-2.96c0.03-0.2-0.23-0.39-0.55-0.4l-33.54-1C200.07,264.62,199.84,264.72,199.77,264.86z"/>
					<g>
						<path class="st11" d="M204.16,268.75l-0.9-0.03c-0.18-0.01-0.31-0.1-0.3-0.21l0.54-3.84c0.02-0.11,0.17-0.2,0.35-0.19
							l0.9,0.03c0.18,0.01,0.31,0.1,0.3,0.21l-0.54,3.84C204.5,268.66,204.34,268.75,204.16,268.75z"/>
						<path class="st11" d="M230.91,269.54l-0.9-0.03c-0.18-0.01-0.31-0.1-0.3-0.21l0.54-3.84c0.02-0.11,0.17-0.2,0.35-0.19
							l0.9,0.03c0.18,0.01,0.31,0.1,0.3,0.21l-0.54,3.84C231.25,269.46,231.09,269.55,230.91,269.54z"/>
						<path class="st11" d="M217.53,269.14l-0.9-0.03c-0.18-0.01-0.31-0.1-0.3-0.21l0.54-3.84c0.02-0.11,0.17-0.2,0.35-0.19
							l0.9,0.03c0.18,0.01,0.31,0.1,0.3,0.21l-0.54,3.84C217.87,269.06,217.71,269.15,217.53,269.14z"/>
					</g>
					<path class="st17" d="M240.52,232.76c0.13,0.72,0.31,1.63,0.49,2.46c0.18,0.85,0.38,1.69,0.6,2.53
						c0.43,1.68,0.91,3.35,1.45,4.98c0.56,1.62,1.17,3.2,1.87,4.71c0.73,1.48,1.48,2.93,2.39,4.19l0.16,0.25
						c0.04,0.05-0.03-0.04-0.07-0.08c-0.04-0.05-0.09-0.09-0.13-0.13c-0.1-0.08-0.18-0.16-0.28-0.22c-0.38-0.26-0.68-0.32-0.82-0.34
						c-0.28-0.02-0.12,0.04,0.1,0.01c0.47-0.03,1.23-0.22,1.97-0.46c1.52-0.51,3.16-1.2,4.76-1.96c3.23-1.51,6.52-3.21,9.75-4.9
						l2.36,3.33c-2.87,2.55-5.83,4.88-9.07,7.01c-1.64,1.04-3.3,2.08-5.23,2.95c-0.98,0.43-1.99,0.86-3.35,1.15
						c-0.69,0.13-1.48,0.26-2.67,0.08c-0.6-0.11-1.35-0.33-2.1-0.86c-0.19-0.14-0.37-0.27-0.54-0.44l-0.25-0.26l-0.18-0.21
						l-0.25-0.31c-2.79-3.32-4.63-7.02-6.07-10.74c-0.71-1.87-1.31-3.76-1.81-5.67c-0.25-0.96-0.47-1.92-0.68-2.89
						c-0.21-0.99-0.38-1.9-0.53-3.02L240.52,232.76z"/>
					<path class="st11" d="M236.54,220.72c5.79,4.47,5.8,17.61,5.8,17.61l-9.99,2.78c0,0-7.19-8.71-5.37-12.84
						C228.88,223.97,233.41,218.3,236.54,220.72z"/>
					<path class="st11" d="M271.34,243.59c-0.17,0-0.34-0.09-0.43-0.26l-7.92-15.15c-0.12-0.24-0.03-0.53,0.2-0.65
						c0.24-0.12,0.53-0.03,0.65,0.2l7.92,15.15c0.12,0.24,0.03,0.53-0.2,0.65C271.49,243.57,271.41,243.59,271.34,243.59z"/>
					<path class="st17" d="M267.98,234.97l-3.03,1.84c-0.76,0.46-1.34,1.15-1.65,1.98l-2.8,7.3l-1.29,4.64c3,1.08,8.45-6,8.45-6
						l3.42-2.57c0.56-0.42,0.8-1.14,0.62-1.81l-1.17-4.36C270.22,234.89,268.95,234.38,267.98,234.97z"/>
				</g>
			</g>
		</g>
		<path class="st9" d="M264.41,294.3l-22.36-0.89l-5.86-34.46c-3.02-17.74-18.38-32.13-34.3-32.13h-14.07
			c-15.93,0-26.39,14.38-23.37,32.13l4.05,23.78c1.5,8.8,9.11,15.94,17.01,15.94h57.44h31.1c0.84,0,1.1-1.28,0.34-1.67
			C271.15,295.36,267.75,294.43,264.41,294.3z"/>
		<path class="st11" d="M269.67,297.92h-7.09v-1.82h7.09c17.86,0,32.38-16.23,32.38-36.19v-6.18h1.82v6.18
			C303.88,280.87,288.54,297.92,269.67,297.92z"/>
	</g>
</g>
<g id="Character_3">
	<g>
		<g>
			<polygon class="st20" points="380.32,351.29 393.13,348.57 395.54,363.87 384.84,366.16 			"/>
			<polygon class="st16" points="380.32,351.29 393.14,348.57 394.49,357.14 382.85,359.62 			"/>
		</g>
		<path class="st11" d="M387.97,292.99c4.26-19.84,13.07-40.56,4.75-59.45l-36.56-0.12c0,0,2.79,43.45,4.07,61.75
			c1.33,19.04,20.61,62.17,20.61,62.17l14.65-3.22C395.49,354.13,391.35,314.23,387.97,292.99z"/>
		<path class="st16" d="M388.38,291.1c2.62-11.48,6.51-23.23,7.54-34.71C382.06,241.27,383.81,272.1,388.38,291.1z"/>
		<path class="st11" d="M398.46,368.13l-3.38,0.75l-0.98-0.97l-1.23,1.47l-6.21,2.69c-2.27,0.99-4.73,1.5-7.21,1.5h-5.1
			c-0.3-1.71,0.82-3.94,0.82-3.94s4.92-0.86,7.46-4.95c0.28-0.45,0.87-0.63,1.45-0.64c2.35-0.06,8.53-0.41,11.61-2.43
			c0.29-0.19,0.73-0.01,0.8,0.34C397.11,364.88,398.46,368.13,398.46,368.13z"/>
		<g>
			<polygon class="st20" points="410,353.19 423.11,353.31 423.68,368.77 412.73,368.69 			"/>
			<polygon class="st16" points="410,353.19 423.12,353.32 423.44,361.97 411.53,361.87 			"/>
		</g>
		<path class="st11" d="M424.26,292.99c1.06-19.84,2.5-49.53-4.16-58.65l-40.83-0.92c0,0,11.35,43.45,15.59,61.75
			c4.41,19.04,15.2,64.04,15.2,64.04l14.17,0.04C424.24,359.25,429.59,315.63,424.26,292.99z"/>
		<g>
			<path class="st21" d="M372.51,174.52l-0.61,0.54l-0.47,0.39l-0.88,0.71c-0.58,0.45-1.16,0.86-1.75,1.25
				c-1.16,0.8-2.37,1.49-3.58,2.16c-2.45,1.3-5.01,2.39-7.68,3.19c-1.33,0.41-2.69,0.74-4.07,1.03c-1.38,0.26-2.77,0.46-4.18,0.59
				c-2.8,0.28-5.65,0.21-8.43-0.11l-1.06-0.12c-1-0.12-1.94-0.48-2.73-0.99c-2.57-1.68-4.49-3.58-6.09-5.51
				c-1.61-1.93-2.87-3.93-4-5.92c-1.1-2.01-2.03-4.04-2.81-6.1c-0.39-1.03-0.73-2.08-1.06-3.13c-0.32-1.08-0.57-2.08-0.84-3.3
				c-0.58-2.6,1.06-5.18,3.67-5.76c1.66-0.37,3.3,0.16,4.43,1.27l0.5,0.5c0.59,0.58,1.26,1.35,1.9,2.02
				c0.63,0.7,1.28,1.38,1.92,2.06c1.28,1.35,2.55,2.65,3.84,3.84c1.26,1.21,2.56,2.28,3.78,3.16c1.22,0.88,2.4,1.54,3.29,1.86
				l-3.79-1.11c1.66-0.1,3.29-0.36,4.9-0.71c1.6-0.39,3.18-0.89,4.74-1.5c1.54-0.64,3.08-1.35,4.54-2.19
				c0.74-0.4,1.45-0.86,2.14-1.29c0.35-0.22,0.67-0.45,0.99-0.66l0.45-0.31l0.19-0.13l0.07-0.04c0.01-0.01,0.02-0.01,0.02-0.01
				c0,0,0.01-0.01-0.06,0.06c3.94-3.52,9.98-3.18,13.5,0.76C376.79,164.96,376.45,171,372.51,174.52z"/>
		</g>
		<path class="st20" d="M324.9,161.23l3.81-4c2.26-5.34-5.12-7.06-5.12-7.06l-4.6-3.34c-1.09-0.76-2.67-0.51-3.74,0.59l-2.68,2.77
			c-1.22,1.26-1.34,3.18-0.25,4.25l3.83,3.49c0.71,0.7,1.58,1.21,2.54,1.49L324.9,161.23z"/>
		<g>
			<path class="st9" d="M376.78,152.66c-8.86-0.51-21.83,9.67-21.83,9.67c-1.23,3.39,1.8,16,7.21,21.5c0,0,6.22,1.48,11.67-5.08
				C379.74,171.61,386.17,153.21,376.78,152.66z"/>
		</g>
		<path class="st9" d="M378.54,152.38c10.8-1.13,25.23-0.99,36.43,0.58c6.99,0.98,11.6,7.72,10.23,14.64
			c-5.66,28.53-1.43,60.36-5.1,66.74c0,0-40.41,0.71-63.95-0.92c-6.45-30.96,6.23-49.91,12.61-74.09
			C369.85,155.19,374.29,152.82,378.54,152.38z"/>
		<g>
			<path class="st21" d="M428.12,164.12l0.9,1.13l0.79,1.03c0.51,0.68,1,1.38,1.49,2.07c0.98,1.38,1.87,2.81,2.75,4.25
				c1.73,2.91,3.35,5.92,4.7,9.16c1.38,3.22,2.55,6.64,3.3,10.39c0.78,3.71,1.1,7.83,0.43,12.21l-0.12,0.81
				c-0.1,0.69-0.34,1.34-0.67,1.91c-1.23,2.14-2.59,4.12-4.02,5.97c-1.42,1.85-2.95,3.57-4.51,5.21c-1.59,1.62-3.22,3.17-4.94,4.61
				c-1.74,1.45-3.45,2.77-5.47,4.08c-2.25,1.45-5.26,0.8-6.71-1.45c-0.96-1.49-1-3.3-0.27-4.78l0.18-0.37
				c0.86-1.73,1.9-3.55,2.83-5.31c0.95-1.77,1.89-3.52,2.77-5.27c0.92-1.72,1.71-3.48,2.52-5.16c0.79-1.69,1.43-3.38,2.06-4.99
				l-0.79,2.73c0-1.68-0.36-3.72-1.03-5.92c-0.33-1.09-0.75-2.22-1.23-3.36c-0.46-1.14-0.98-2.3-1.57-3.46
				c-1.16-2.31-2.48-4.65-3.92-6.94c-0.71-1.16-1.47-2.29-2.21-3.42l-1.14-1.67l-1.05-1.49l-0.35-0.49
				c-3.03-4.32-2-10.27,2.32-13.31C419.31,159.37,424.98,160.23,428.12,164.12z"/>
			<g>
				<path class="st9" d="M418.11,153.83c8.35,3,16.24,17.14,16.24,17.14c-0.39,5.15-8.55,16.81-14.36,19.34
					c0,0-6.22-4.91-8.66-13.08C408.68,168.33,413.81,155.11,418.11,153.83z"/>
			</g>
		</g>
		<path class="st20" d="M384.28,154.48c0.53-1.14,2.07-2.88,3.68-3.48c0.57-1.4,0.65-2.96,0.12-4.79l17.95-5.72
			c-1.45,5.93-2.59,10.62-0.38,13.5c-3.53,2.15-9.99,6.02-17.04,5.82C381.55,159.61,383.13,156.97,384.28,154.48z"/>
		<path class="st16" d="M388.22,146.76l13.47-0.79c-4.21,4.5-10.6,6.19-13.51,4.36C388.49,149.25,388.52,148.08,388.22,146.76z"/>
		<g>
			<path class="st9" d="M388.18,159.8l2.91-2.42l3.91,1.96C395.01,159.34,392.51,161.68,388.18,159.8z"/>
			<path class="st15" d="M388.18,159.8l2.91-2.42l3.91,1.96C395.01,159.34,392.51,161.68,388.18,159.8z"/>
		</g>
		<path class="st6" d="M398.11,121.94c-0.22-5.51-5.53-8.03-10.15-5.13c-4.61,2.9-5.05,11.75-1.61,16.37
			C389.8,137.8,398.11,121.94,398.11,121.94z"/>
		<path class="st20" d="M409.53,131.41c-2.14,7.72-3.77,12.93-9.35,15.41c-11.08,4.93-16.03-0.3-16.43-8.45
			c-0.35-7.34,3.21-18.74,12.11-20.4C404.62,116.33,411.67,123.69,409.53,131.41z"/>
		<path class="st4" d="M403.39,127.39c-2.39,2.28-3.34,12.31,0.27,12.15c3.61-0.16,7.33-0.95,7.33-0.95s4.59-1.73,2.08-8.62
			C410.55,123.08,403.39,127.39,403.39,127.39z"/>
		<path class="st16" d="M396.95,130.47c0,0,1.76-0.48,3,0.41C398.28,130.99,396.95,130.47,396.95,130.47z"/>
		<path class="st16" d="M396.9,131.19c0,0,1.66-0.09,2.54,1.04C397.95,131.98,396.9,131.19,396.9,131.19z"/>
		<path class="st16" d="M390.2,122.3c0,0,4.21-0.05,7.55,0.76C393.53,122.79,390.2,122.3,390.2,122.3z"/>
		<path class="st16" d="M389.04,123c0,0,5.76,0.63,8.43,1.87C392.4,124.04,389.04,123,389.04,123z"/>
		<path class="st20" d="M411.12,140.46c-1.56,1.71-3.76,2.53-5.67,2.58c-2.87,0.07-3.63-2.67-2.26-5.01c1.23-2.11,4.2-4.69,6.8-3.65
			C412.55,135.41,412.9,138.5,411.12,140.46z"/>
		
			<ellipse transform="matrix(0.1768 -0.9843 0.9843 0.1768 195.8997 494.667)" class="st11" cx="393.66" cy="130.23" rx="1.27" ry="0.83"/>
		<path class="st11" d="M387.32,129.24c-0.13,0.69-0.6,1.17-1.05,1.09c-0.45-0.09-0.71-0.72-0.58-1.4s0.6-1.17,1.05-1.09
			C387.19,127.92,387.45,128.55,387.32,129.24z"/>
		<path class="st22" d="M389.59,130.23l-1.03,5.79c0,0-1.03,0.05-2.05-0.29c-0.59-0.19-0.69-1-0.18-1.35
			C388.09,133.15,389.59,130.23,389.59,130.23z"/>
		<path class="st11" d="M398.5,129.11c0.07,0,0.14-0.01,0.2-0.04c0.2-0.1,0.29-0.35,0.18-0.55c-1.02-2.05-2.9-2.3-2.98-2.31
			c-0.23-0.03-0.43,0.13-0.45,0.36c-0.03,0.22,0.13,0.43,0.36,0.46l0,0c0.06,0.01,1.53,0.22,2.34,1.86
			C398.22,129.02,398.35,129.1,398.5,129.11z"/>
		<path class="st11" d="M384.93,126.85c0.13,0.02,0.27-0.02,0.37-0.12c1.24-1.32,2.7-1.08,2.76-1.07c0.22,0.04,0.43-0.11,0.47-0.33
			c0.04-0.22-0.11-0.44-0.33-0.48c-0.08-0.01-1.95-0.34-3.5,1.32c-0.15,0.17-0.15,0.43,0.02,0.58
			C384.78,126.8,384.85,126.84,384.93,126.85z"/>
		<path class="st3" d="M404.42,150c0,0-5.78,7.02-13.32,7.38c4.39,2.08,5.13,7,5.13,7s9.4-2.87,11.18-12.87
			C406.28,149.9,404.42,150,404.42,150z"/>
		<g>
			<path class="st9" d="M388.18,159.8l-3.3-2.96l-4.2,1.25C380.68,158.09,383.86,161.68,388.18,159.8z"/>
			<path class="st15" d="M388.18,159.8l-3.3-2.96l-4.2,1.25C380.68,158.09,383.86,161.68,388.18,159.8z"/>
		</g>
		<path class="st3" d="M387.95,151c0,0-2.93,3.4-3.07,5.84c-3.53,1-5.22,6.16-5.22,6.16s-0.64-7.39,4.89-11.37
			C385.89,150.75,387.95,151,387.95,151z"/>
		<path class="st11" d="M425.54,373.56h-2.85l-0.77-1.16l-1.5,1.17h-17.2c-0.34-1.71,0.73-3.94,0.73-3.94s5.14-0.47,7.12-3.03
			c0.15-0.2,0.39-0.3,0.64-0.25c1.71,0.36,8.52,1.64,12.26,0.3c0.41-0.15,0.83,0.13,0.84,0.56
			C424.86,370.17,425.54,373.56,425.54,373.56z"/>
		<g>
			<path class="st11" d="M388.34,162.41c0.81-1.27,1.23-2.6,0.32-3.2c-0.65-0.43-2.6-1.03-2.96,0.31c-0.36,1.34-0.36,2.43,0.2,3.03
				C386.46,163.16,387.83,163.2,388.34,162.41z"/>
			<path class="st11" d="M388.75,159.48c1.7-2.36,6.7-3.2,6.7-1.26c0,3.72-0.12,7.5-1.72,8.38c-1.6,0.88-4.12-4.9-5.35-4.97
				L388.75,159.48z"/>
			<path class="st11" d="M386.01,159.35c-1.03-2.49-4.17-3.37-4.69-1.52c-0.99,3.54-1.14,6.49,0.03,7.51
				c1.16,1.02,3.64-3.86,4.65-3.82L386.01,159.35z"/>
		</g>
		<path class="st20" d="M330.13,156c1.26-4.57-1.93-7.4-3.7-10.36c-0.3-0.5-1.84-0.23-1.92,0.83c-0.13,1.86,0.24,2.74,0.93,3.69
			c-0.93,1.16-2.31,5.22,0.94,7.86C328.54,157.9,330.13,156,330.13,156z"/>
		<g>
			<path class="st3" d="M416.72,153.09c-0.61-0.47-2-0.78-3.03-0.47c-3.12,3.59-16.67,29.72-11.1,78.15h3.17
				C400.19,182.34,413.6,156.69,416.72,153.09z"/>
			<path class="st3" d="M406.09,234.74l-0.28-3.57c-0.03-0.38-0.38-0.67-0.79-0.64l-1.53,0.09c-0.4,0.02-0.71,0.35-0.68,0.73
				l0.28,3.57c0.03,0.38,0.38,0.67,0.79,0.64l1.53-0.09C405.81,235.44,406.12,235.11,406.09,234.74z"/>
			<path class="st11" d="M406.16,232.45h-3.42c-0.36,0-0.7-0.3-0.76-0.66l-0.22-1.37c-0.06-0.36,0.19-0.66,0.55-0.66h3.42
				c0.36,0,0.7,0.3,0.76,0.66l0.22,1.37C406.77,232.15,406.52,232.45,406.16,232.45z"/>
		</g>
		<g>
			<path class="st3" d="M379.37,152.29c-0.59-0.47-2.45-0.19-3.38,0.33c-3.28,3.59-17.99,29.72-14.56,78.15h3.17
				C361.17,182.34,376.1,155.89,379.37,152.29z"/>
			<path class="st3" d="M364.75,234.74l-0.12-3.57c-0.01-0.38-0.35-0.67-0.76-0.64l-1.54,0.09c-0.4,0.02-0.72,0.35-0.71,0.73
				l0.12,3.57c0.01,0.38,0.35,0.67,0.76,0.64l1.54-0.09C364.44,235.44,364.76,235.11,364.75,234.74z"/>
			<path class="st11" d="M364.92,232.45h-3.42c-0.36,0-0.69-0.3-0.73-0.66l-0.16-1.37c-0.04-0.36,0.22-0.66,0.58-0.66h3.42
				c0.36,0,0.69,0.3,0.73,0.66l0.16,1.37C365.54,232.15,365.28,232.45,364.92,232.45z"/>
		</g>
		<path class="st6" d="M396.82,111.64c-3.88-3.09-10.31,5.17-1.82,9.76c10.64,5.76,9.36,15.05,23.12,12.34
			c-5.89-4.13-2.14-7.27-4.63-13.24C410.7,113.82,403.11,116.64,396.82,111.64z"/>
		<path class="st6" d="M390.9,116.59c1.26,4.62,2.79,5.7,4.21,6.91c-1.5-2.21-2.11-5.13-2.11-5.13L390.9,116.59z"/>
		<path class="st11" d="M385.22,138.15c0,0,2.99-0.24,11.11,0.97c-1.31,2.3-3.39,4.03-7.54,3.37
			C384.64,141.84,385.22,138.15,385.22,138.15z"/>
		<path class="st22" d="M391.01,140.86c-2-0.32-3.52-0.08-4.71,0.51c0.53,0.52,1.33,0.94,2.49,1.12c2,0.32,3.51,0.09,4.7-0.51
			C392.96,141.47,392.17,141.05,391.01,140.86z"/>
		<path class="st3" d="M385.6,138.14c0.15,0.55,0.3,1.11,1.09,1.4c1.67,0.37,6.08,0.53,7.28,0.46c0.76-0.01,1.44-0.17,2.01-0.93
			C389.73,138.16,386.61,138.12,385.6,138.14z"/>
		<path class="st6" d="M385.05,144.1c0.08,2.17,2.26,3.96,1.69,5.36c2.67,0.2,5.56-0.43,7.74-1.74c0.88-0.53,0.56-1.89-0.46-2.03
			c-2.02-0.29-3.82-0.96-4.79-1.74c-0.38-0.31-0.91-0.35-1.28-0.04C386.23,145.33,385.05,144.1,385.05,144.1z"/>
		<polygon class="st11" points="422.26,234.3 371.51,198.92 372.06,198.11 423.31,232.77 		"/>
		<path class="st20" d="M417.88,219.75l4.93,2.49c3.91,4.28-2.46,8.36-2.46,8.36l-2.27,3.2c-0.77,1.08-2.35,1.38-3.72,0.7
			l-3.46-1.71c-1.58-0.78-2.32-2.55-1.66-3.92l1.5-3.08c0.44-0.9,1.09-1.67,1.9-2.25L417.88,219.75z"/>
	</g>
</g>
</svg>
